<svg xmlns="http://www.w3.org/2000/svg" viewBox="0 0 800 600"><defs><style>.cls-1{isolation:isolate;}.cls-2{fill:#7e9ab5;}.cls-3,.cls-9{fill:#edeced;}.cls-11,.cls-16,.cls-20,.cls-23,.cls-3,.cls-5{mix-blend-mode:multiply;}.cls-4,.cls-6{fill:#e1dbc6;}.cls-4{opacity:0.3;}.cls-5{opacity:0.15;}.cls-7{fill:#946e58;}.cls-8{fill:#333;}.cls-10{fill:#fff;}.cls-11{fill:#bfd5df;}.cls-12{fill:#ebbeb8;}.cls-13{fill:#cdb08d;}.cls-14{fill:#d5c0aa;}.cls-15,.cls-16{fill:#444445;}.cls-16{opacity:0.1;}.cls-17{fill:#474748;}.cls-18{fill:#f1c9c1;}.cls-19{fill:#f6d8d4;}.cls-20{opacity:0.2;}.cls-21{fill:#aa8f74;}.cls-22{fill:#fbd3c9;}.cls-23{fill:#dcdcdc;opacity:0.5;}</style></defs><title>stree-musician-busker-guitar</title><g class="cls-1"><g id="Layer_1" data-name="Layer 1"><rect class="cls-2" x="361.32" y="318.71" width="66" height="73.49"/><polygon class="cls-3" points="360.82 345.25 426.82 411.25 426.82 318.71 417.57 328.69 400.75 335.51 388.61 332.1 379.63 332.89 368.82 341.31 360.82 345.25"/><path class="cls-3" d="M427.32,318.71h-66V352.3a41,41,0,0,0,17.55-10.84,14.91,14.91,0,0,1,18.36-2.13,17.33,17.33,0,0,0,9.25,2.74c9.58,0,17.74-8.24,20.84-19.76Z"/><path class="cls-4" d="M239.52,486.27h309.6a219.18,219.18,0,0,0,65.06-156.12c0-121.43-98.44-219.86-219.86-219.86S174.45,208.72,174.45,330.15A219.18,219.18,0,0,0,239.52,486.27Z"/><g class="cls-5"><rect class="cls-6" x="205.32" y="237.71" width="60" height="36" rx="6" ry="6"/><rect class="cls-6" x="277.32" y="237.71" width="60" height="36" rx="6" ry="6"/><rect class="cls-6" x="277.32" y="141.71" width="60" height="36" rx="6" ry="6"/><rect class="cls-6" x="421.32" y="141.71" width="60" height="36" rx="6" ry="6"/><rect class="cls-6" x="493.32" y="237.71" width="60" height="36" rx="6" ry="6"/><rect class="cls-6" x="421.32" y="237.71" width="60" height="36" rx="6" ry="6"/><rect class="cls-6" x="241.32" y="189.71" width="60" height="36" rx="6" ry="6"/><rect class="cls-6" x="313.32" y="189.71" width="60" height="36" rx="6" ry="6"/><rect class="cls-6" x="385.32" y="189.71" width="60" height="36" rx="6" ry="6"/><rect class="cls-6" x="457.32" y="189.71" width="60" height="36" rx="6" ry="6"/><rect class="cls-6" x="529.32" y="189.71" width="60" height="36" rx="6" ry="6"/><rect class="cls-6" x="241.32" y="285.71" width="60" height="36" rx="6" ry="6"/><rect class="cls-6" x="241.32" y="381.71" width="60" height="36" rx="6" ry="6"/><rect class="cls-6" x="169.32" y="381.71" width="60" height="36" rx="6" ry="6"/><rect class="cls-6" x="169.32" y="285.71" width="60" height="36" rx="6" ry="6"/><rect class="cls-6" x="277.32" y="333.71" width="60" height="36" rx="6" ry="6"/><rect class="cls-6" x="463.32" y="333.71" width="60" height="36" rx="6" ry="6"/><rect class="cls-6" x="391.32" y="333.71" width="60" height="36" rx="6" ry="6"/><rect class="cls-6" x="535.32" y="333.71" width="60" height="36" rx="6" ry="6"/><rect class="cls-6" x="205.32" y="333.71" width="60" height="36" rx="6" ry="6"/><rect class="cls-6" x="565.32" y="237.71" width="60" height="36" rx="6" ry="6"/><rect class="cls-6" x="523.32" y="285.71" width="60" height="36" rx="6" ry="6"/><rect class="cls-6" x="427.32" y="285.71" width="60" height="36" rx="6" ry="6"/><rect class="cls-6" x="523.32" y="381.71" width="60" height="36" rx="6" ry="6"/><rect class="cls-6" x="427.32" y="381.71" width="60" height="36" rx="6" ry="6"/></g><path class="cls-7" d="M299.54,304.42,358.34,231a20.74,20.74,0,0,1,13-4.55H382l-73.63,84.35a4.05,4.05,0,0,1-2.5.87h-3.82a4.05,4.05,0,0,1-2.53-7.22Z"/><path class="cls-8" d="M305.89,314.64h-3.82a7.05,7.05,0,0,1-4.69-12.32l58.83-73.49.26-.21c4.19-3.35,11.42-3,16.8-3l15.36-2.2L310.47,313l-.22.17A7.08,7.08,0,0,1,305.89,314.64Zm54.57-81.53-58.79,73.44-.26.21a1.05,1.05,0,0,0,.66,1.87h3.82a1.06,1.06,0,0,0,.49-.12l69-79.1h-4.12A17.81,17.81,0,0,0,360.46,233.11Z"/><polygon class="cls-9" points="338.41 245.97 358.32 227.55 382.32 225.58 407.3 226.28 430.24 230.53 447.41 255.44 430.24 269.03 425.54 262.94 425.54 305.21 362.82 305.21 362.82 271.29 355.32 265.31 351.35 268 340.76 258.19 338.41 245.97"/><path class="cls-10" d="M382.81,231.56a6,6,0,0,0,5.51-5.81l-6-.17-24,2L338.41,246l1.13,5.89a6,6,0,0,0,2.94-1.49L359.09,235a7.08,7.08,0,0,1,4.21-1.85Z"/><polygon class="cls-11" points="442.32 246.72 340.32 246.72 346.32 240.72 436.32 240.72 442.32 246.72"/><polygon class="cls-11" points="430.32 234.71 352.32 234.71 358.32 228.71 430.32 228.71 430.32 234.71"/><path class="cls-9" d="M340.76,258.19s1.63,2.9,6.26,5.64,6,2.77,6,2.77l9-6.07-8.25-10.9Z"/><polygon class="cls-11" points="424.32 270.71 364.32 270.71 358.32 264.71 424.32 264.71 424.32 270.71"/><rect class="cls-11" x="412.32" y="276.71" width="12" height="6"/><rect class="cls-11" x="339.56" y="252.71" width="108.76" height="6"/><path class="cls-8" d="M195.45,489.71h-18a3,3,0,1,1,0-6h18a3,3,0,0,1,0,6Z"/><path class="cls-8" d="M361.32,369.43a3,3,0,0,1-3-3V347a3,3,0,0,1,6,0v19.38A3,3,0,0,1,361.32,369.43Z"/><path class="cls-8" d="M427.32,378.15a3,3,0,0,1-3-3V312.71a3,3,0,0,1,6,0v62.44A3,3,0,0,1,427.32,378.15Z"/><path class="cls-8" d="M394.32,372.34a3,3,0,0,1-3-3V354.71A3,3,0,0,1,393,352l7.79-3.89a3,3,0,1,1,2.68,5.37l-6.13,3.06v12.77A3,3,0,0,1,394.32,372.34Z"/><path class="cls-8" d="M394.32,357.72a3,3,0,0,1-1.34-.32l-7.79-3.89a3,3,0,0,1,2.68-5.37l7.79,3.89a3,3,0,0,1-1.34,5.68Z"/><path class="cls-12" d="M475.18,288.71l-17.86-17.42L445.5,256.38l-3.8,2.72a34.56,34.56,0,0,0-9,9.4l-1.08,1.68,12.16,15.28,25.13,24.71,15.37-8.35Z"/><path class="cls-13" d="M422.91,295c-3.37-10.77-11.24-18.32-20.42-18.32a17.33,17.33,0,0,0-9.25,2.74,14.91,14.91,0,0,1-18.36-2.13,40.59,40.59,0,0,0-29.39-12.61c-22.74,0-41.17,18.8-41.17,42s18.43,42,41.17,42a40.59,40.59,0,0,0,29.39-12.61A14.91,14.91,0,0,1,393.23,334a17.33,17.33,0,0,0,9.25,2.74c10.71,0,19.65-10.28,21.72-24"/><path class="cls-14" d="M350.45,265a40.64,40.64,0,0,0-5-.32c-22.74,0-41.17,18.8-41.17,42a43.21,43.21,0,0,0,.3,5,5,5,0,0,0,4.7-5c0-20.4,16.22-37,36.17-37A5,5,0,0,0,350.45,265Z"/><path class="cls-14" d="M422.91,295c-3.37-10.77-11.24-18.32-20.42-18.32a17.33,17.33,0,0,0-9.25,2.74,14.53,14.53,0,0,1-4.62,1.87,4.94,4.94,0,0,0,7.28,2.37,12.33,12.33,0,0,1,6.6-2c6.7,0,12.84,5.81,15.65,14.81a5,5,0,0,0,4.77,3.51l.36,0Z"/><path class="cls-8" d="M353.26,266.79l-1.93,1.38a37.52,37.52,0,0,1,21.37,11.24,18,18,0,0,0,22.12,2.6,14.3,14.3,0,0,1,7.66-2.29c7.59,0,14.48,6.37,17.56,16.22l5.73-1.79c-3.88-12.41-13-20.43-23.29-20.43a20.21,20.21,0,0,0-10.84,3.2,11.85,11.85,0,0,1-14.6-1.66,43.38,43.38,0,0,0-31.14-13.53Z"/><path class="cls-8" d="M421.24,312.31c-1.87,12.4-9.76,21.4-18.75,21.4a14.31,14.31,0,0,1-7.66-2.29A18,18,0,0,0,372.71,334a37.44,37.44,0,0,1-27.22,11.69c-21,0-38.17-17.5-38.17-39a39.27,39.27,0,0,1,13.25-29.5c-.63-1.92-1.26-4-1.94-6.18a45.24,45.24,0,0,0-17.31,35.69c0,24.81,19.81,45,44.17,45A43.38,43.38,0,0,0,377,338.18a11.85,11.85,0,0,1,14.6-1.66,20.21,20.21,0,0,0,10.84,3.2c12,0,22.36-11.15,24.68-26.51Z"/><path class="cls-8" d="M436.12,276.06l-7.8-6.46v25.11h-6V260.4a3,3,0,0,1,2.07-2.85c1.23-.4,1.52,1.1,2.29,2.15L435.12,270"/><path class="cls-15" d="M538.32,396.71h-48a6,6,0,0,0-6,6H434.41c-5.28-14.18-16.57-24-29.69-24a26.62,26.62,0,0,0-12.16,3A24.83,24.83,0,0,1,367,380.27a42,42,0,0,0-24-7.55c-24.62,0-44.57,21.49-44.57,48s20,48,44.57,48a42,42,0,0,0,24-7.55,24.83,24.83,0,0,1,25.56-1.42,26.62,26.62,0,0,0,12.16,3c14.9,0,27.47-12.66,31.52-30h48.08a6,6,0,0,0,6,6h48C541.6,438.71,541.6,396.71,538.32,396.71Z"/><path class="cls-8" d="M343,471.71c-26.23,0-47.57-22.88-47.57-51s21.34-51,47.57-51a45.07,45.07,0,0,1,25.69,8.08A22,22,0,0,0,391.2,379a29.54,29.54,0,0,1,13.52-3.3c13.29,0,25.55,9.35,31.73,24h45.38a9,9,0,0,1,8.49-6h48c3.87,0,4.42,5.35,4.83,9.25s.63,9.15.63,14.75-.22,10.84-.63,14.75-1,9.25-4.83,9.25h-48a9,9,0,0,1-8.49-6H438.56c-5,17.78-18.66,30-33.84,30a29.52,29.52,0,0,1-13.52-3.3,22,22,0,0,0-22.49,1.21A45.07,45.07,0,0,1,343,471.71Zm0-96c-22.92,0-41.57,20.19-41.57,45s18.65,45,41.57,45a39.1,39.1,0,0,0,22.28-7,28,28,0,0,1,28.63-1.62,23.58,23.58,0,0,0,10.79,2.64c13,0,24.79-11.38,28.59-27.68l.54-2.32h53.46v3a3,3,0,0,0,3,3h46.33c1.52-6.13,1.52-29.87,0-36H490.32a3,3,0,0,0-3,3v3h-55l-.73-2c-5-13.39-15.54-22-26.88-22a23.59,23.59,0,0,0-10.79,2.64,28,28,0,0,1-28.63-1.62A39.1,39.1,0,0,0,343,375.71Z"/><path class="cls-16" d="M301.32,429.71c0-26.51,20-48,44.57-48a42,42,0,0,1,24,7.55,24.83,24.83,0,0,0,25.56,1.42c3.76-1.92,4.84-3,9.14-3,13.12,0,24.4,9.82,29.69,24h52.93a6,6,0,0,1,6-6h47.19c-.39-5.25-1.08-9-2.06-9h-48a6,6,0,0,0-6,6H434.41c-5.28-14.18-16.57-24-29.69-24a26.62,26.62,0,0,0-12.16,3A24.83,24.83,0,0,1,367,380.27a42,42,0,0,0-24-7.55c-24.62,0-44.57,21.49-44.57,48a50.84,50.84,0,0,0,4.1,20A51.51,51.51,0,0,1,301.32,429.71Z"/><path class="cls-17" d="M344,465.71v-6a30.46,30.46,0,0,0,17.35-5.49,36.44,36.44,0,0,1,20.8-6.47A38.44,38.44,0,0,1,399.54,452a14.83,14.83,0,0,0,6.78,1.68c8.93,0,17.18-8.62,20.05-21l2.18-9.34H486.7v6H433.32l-1.1,4.71c-3.51,15.07-14.16,25.59-25.9,25.59a20.78,20.78,0,0,1-9.51-2.33,32.41,32.41,0,0,0-14.64-3.56,30.47,30.47,0,0,0-17.39,5.41A36.43,36.43,0,0,1,344,465.71Zm193-30.29H490.82v-6h40.59a187.22,187.22,0,0,0-.18-21l6-.47a190.28,190.28,0,0,1,0,24.71Z"/><path class="cls-8" d="M597.68,489.71H207.45a3,3,0,1,1,0-6H597.68a3,3,0,0,1,0,6Z"/><path class="cls-8" d="M627.68,489.71h-18a3,3,0,0,1,0-6h18a3,3,0,0,1,0,6Z"/><circle class="cls-15" cx="376.32" cy="306.71" r="12"/><path class="cls-8" d="M376.32,293.21a13.52,13.52,0,0,0-13.5,13.5h3a10.5,10.5,0,1,1,10.5,10.5l-.57,0a7.32,7.32,0,0,1-2,2.77,13.5,13.5,0,1,0,2.6-26.74Z"/><rect class="cls-7" x="406.32" y="294.71" width="90" height="18" rx="1.5" ry="1.5"/><path class="cls-8" d="M494.82,291.71h-87a4.5,4.5,0,0,0-4.5,4.5v15a4.5,4.5,0,0,0,4.5,4.5h60c-.84-1.93-.69-4.49,1.1-5.55l.78-.45H409.32v-12h84v12h-3v5.4a5,5,0,0,1,0,.6h4.55a4.5,4.5,0,0,0,4.5-4.5v-15A4.5,4.5,0,0,0,494.82,291.71Z"/><path class="cls-13" d="M532.32,318.71l-33.12-1.38a3,3,0,0,1-2.88-3V293.09a3,3,0,0,1,2.88-3l33.12-1.38C536.28,291.06,536.28,316.37,532.32,318.71Z"/><path class="cls-8" d="M533.08,321.75l-34-1.42a6,6,0,0,1-5.75-6V293.09a6,6,0,0,1,5.75-6l34-1.42.77.45c3.67,2.17,4.44,10.76,4.44,17.58s-.77,15.41-4.44,17.59Zm-2.56-5.41Zm.4-24.57-31.61,1.32v21.24l31.61,1.32C532.79,311.45,532.79,296,530.92,291.77Zm-.4-.69Z"/><path class="cls-8" d="M505.32,291.71a3,3,0,0,1-3-3v-4.5a3,3,0,0,1,6,0v4.5A3,3,0,0,1,505.32,291.71Z"/><path class="cls-8" d="M515.82,291.71a3,3,0,0,1-3-3v-4.5a3,3,0,0,1,6,0v4.5A3,3,0,0,1,515.82,291.71Z"/><path class="cls-8" d="M472.32,307.12a.75.75,0,0,1-.75-.75V295.8a.75.75,0,0,1,1.5,0v10.57A.75.75,0,0,1,472.32,307.12Z"/><path class="cls-8" d="M460.32,310.09a.75.75,0,0,1-.75-.75V296.21a.75.75,0,0,1,1.5,0v13.13A.75.75,0,0,1,460.32,310.09Z"/><path class="cls-8" d="M448.32,310.09a.75.75,0,0,1-.75-.75V296.21a.75.75,0,0,1,1.5,0v13.13A.75.75,0,0,1,448.32,310.09Z"/><path class="cls-8" d="M437.82,310.09a.75.75,0,0,1-.75-.75V296.21a.75.75,0,0,1,1.5,0v13.13A.75.75,0,0,1,437.82,310.09Z"/><path class="cls-8" d="M427.32,310.09a.75.75,0,0,1-.75-.75V296.21a.75.75,0,0,1,1.5,0v13.13A.75.75,0,0,1,427.32,310.09Z"/><path class="cls-8" d="M416.82,310.09a.75.75,0,0,1-.75-.75V296.21a.75.75,0,0,1,1.5,0v13.13A.75.75,0,0,1,416.82,310.09Z"/><path class="cls-8" d="M526.32,291.71a3,3,0,0,1-3-3v-4.5a3,3,0,0,1,6,0v4.5A3,3,0,0,1,526.32,291.71Z"/><rect class="cls-8" x="337.32" y="306.71" width="6" height="15"/><path class="cls-8" d="M505.32,326.21a3,3,0,0,1-3-3v-4.5a3,3,0,0,1,6,0v4.5A3,3,0,0,1,505.32,326.21Z"/><path class="cls-8" d="M515.82,326.21a3,3,0,0,1-3-3v-4.5a3,3,0,1,1,6,0v4.5A3,3,0,0,1,515.82,326.21Z"/><path class="cls-8" d="M526.32,326.21a3,3,0,0,1-3-3v-4.5a3,3,0,1,1,6,0v4.5A3,3,0,0,1,526.32,326.21Z"/><rect class="cls-15" x="298.32" y="456.71" width="240" height="30" rx="3" ry="3"/><path class="cls-8" d="M535.32,489.71h-234a6,6,0,0,1-6-6v-24a6,6,0,0,1,6-6h234a6,6,0,0,1,6,6v24A6,6,0,0,1,535.32,489.71Zm-234-30v24h234v-24Z"/><path class="cls-8" d="M436.32,488.21a1.5,1.5,0,0,1-1.5-1.5v-12a1.5,1.5,0,0,1,3,0v12A1.5,1.5,0,0,1,436.32,488.21Z"/><path class="cls-8" d="M484.32,488.21a1.5,1.5,0,0,1-1.5-1.5V471.93a1.5,1.5,0,0,1,3,0v14.79A1.5,1.5,0,0,1,484.32,488.21Z"/><path class="cls-8" d="M436.32,467.21a1.5,1.5,0,0,1-1.5-1.5v-9a1.5,1.5,0,0,1,3,0v9A1.5,1.5,0,0,1,436.32,467.21Z"/><path class="cls-8" d="M484.32,464.21a1.5,1.5,0,0,1-1.5-1.5v-6a1.5,1.5,0,0,1,3,0v6A1.5,1.5,0,0,1,484.32,464.21Z"/><path class="cls-8" d="M436.32,476.21a1.5,1.5,0,0,1-1.06-2.56l18-18a1.5,1.5,0,1,1,2.12,2.12l-18,18A1.5,1.5,0,0,1,436.32,476.21Z"/><path class="cls-8" d="M436.32,464.21a1.5,1.5,0,0,1-1.06-2.56l6-6a1.5,1.5,0,1,1,2.12,2.12l-6,6A1.5,1.5,0,0,1,436.32,464.21Z"/><path class="cls-8" d="M436.32,488.21a1.5,1.5,0,0,1-1.06-2.56l30-30a1.5,1.5,0,1,1,2.12,2.12l-30,30A1.5,1.5,0,0,1,436.32,488.21Z"/><path class="cls-8" d="M448.32,488.21a1.5,1.5,0,0,1-1.06-2.56l30-30a1.5,1.5,0,1,1,2.12,2.12l-30,30A1.5,1.5,0,0,1,448.32,488.21Z"/><path class="cls-8" d="M460.32,488.21a1.5,1.5,0,0,1-1.06-2.56l24-24a1.5,1.5,0,1,1,2.12,2.12l-24,24A1.5,1.5,0,0,1,460.32,488.21Z"/><path class="cls-8" d="M472.32,488.21a1.5,1.5,0,0,1-1.06-2.56l12-12a1.5,1.5,0,1,1,2.12,2.12l-12,12A1.5,1.5,0,0,1,472.32,488.21Z"/><path class="cls-18" d="M372.16,306.71H358.32l-14.49-33.16,9.43-6.76-12.5-8.59-2.14-12.42-18.42,17a7,7,0,0,0-1.92,7.14c4.81,15.73,7,22.45,22,40.49,3.35,4,5.83,7.36,11.24,11.55,2.21,1.71,3.32,2.82,9.54,2.59,3.56-.13,8-2,11.23-3.61a7.35,7.35,0,0,0,4-6.58v-3.47A4.16,4.16,0,0,0,372.16,306.71Z"/><polygon class="cls-3" points="350.5 275.4 359.93 268.63 355.21 265.39 343.83 273.55 358.32 306.71 364.18 306.71 350.5 275.4"/><path class="cls-3" d="M378.78,308h-3.67a5,5,0,0,1,.81,2.74v4.11a8.74,8.74,0,0,1-4.62,7.79c-3.64,1.89-8.76,4.12-12.82,4.27-.78,0-1.48,0-2.13,0,1.93,1.49,3.78,2.38,9.74,2.15,4.06-.15,9.18-2.39,12.82-4.27a8.74,8.74,0,0,0,4.62-7.79v-4.11A4.84,4.84,0,0,0,378.78,308Z"/><path class="cls-19" d="M326.11,275.34c-.65-2.28-1.32-4.65-2.09-7.19a1,1,0,0,1,.25-1l15.56-14.36-1.21-7-18.42,17a7,7,0,0,0-1.92,7.14c4.81,15.73,7,22.45,22,40.49,1.55,1.87,2.92,3.58,4.48,5.31a6,6,0,0,0-1-5.85C331.87,295.65,329.46,287.13,326.11,275.34Z"/><line class="cls-10" x1="343.83" y1="273.55" x2="337.69" y2="269.03"/><path class="cls-8" d="M479.53,300H358.32a.75.75,0,0,0,0,1.5H478.11A4.58,4.58,0,0,1,479.53,300Z"/><path class="cls-8" d="M515.82,300h-31a5.58,5.58,0,0,1,.75.58l.64.92h29.6a.75.75,0,0,0,0-1.5Z"/><path class="cls-8" d="M505.32,297h-150a.75.75,0,0,1,0-1.5h150a.75.75,0,0,1,0,1.5Z"/><path class="cls-8" d="M526.32,304.46h-38l.55.79c.16.24.32.47.48.71h37a.75.75,0,0,0,0-1.5Z"/><path class="cls-8" d="M476.72,304.46H364.32a.75.75,0,0,0,0,1.5H476.09C476.23,305.62,476.45,305.08,476.72,304.46Z"/><path class="cls-8" d="M468.95,310.16c.52-.31,1.29-.74,2.14-1.2H376.32a.75.75,0,0,0,0,1.5h92.25A2.89,2.89,0,0,1,468.95,310.16Z"/><path class="cls-8" d="M515.8,309H490.32v1.5H515.8a.75.75,0,0,0,0-1.5Z"/><rect class="cls-8" x="482.82" y="294.71" width="3" height="6"/><g class="cls-20"><path class="cls-21" d="M316.32,290.21h-6.94a1.5,1.5,0,0,1,0-3h6.94a1.5,1.5,0,0,1,0,3Z"/></g><g class="cls-20"><path class="cls-21" d="M366.76,290.21H351.94a1.5,1.5,0,0,1,0-3h14.81a1.5,1.5,0,0,1,0,3Z"/></g><g class="cls-20"><path class="cls-21" d="M418.32,290.21h-30a1.5,1.5,0,0,1,0-3h30a1.5,1.5,0,0,1,0,3Z"/></g><g class="cls-20"><path class="cls-21" d="M406.32,317.21h-12a1.5,1.5,0,0,1,0-3h12a1.5,1.5,0,0,1,0,3Z"/></g><g class="cls-20"><path class="cls-21" d="M524.82,297.65h-12a1.5,1.5,0,1,1,0-3h12a1.5,1.5,0,0,1,0,3Z"/></g><g class="cls-20"><path class="cls-21" d="M534.65,310.84h-12a1.5,1.5,0,0,1,0-3h12a1.5,1.5,0,0,1,0,3Z"/></g><g class="cls-20"><path class="cls-21" d="M509.82,305.59h-12a1.5,1.5,0,0,1,0-3h12a1.5,1.5,0,0,1,0,3Z"/></g><g class="cls-20"><path class="cls-21" d="M370.32,338.21h-18a1.5,1.5,0,0,1,0-3h18a1.5,1.5,0,0,1,0,3Z"/></g><g class="cls-20"><path class="cls-21" d="M340.32,314.21H318a1.5,1.5,0,0,1,0-3h22.34a1.5,1.5,0,0,1,0,3Z"/></g><g class="cls-20"><path class="cls-21" d="M322.32,326.21h-12a1.5,1.5,0,0,1,0-3h12a1.5,1.5,0,0,1,0,3Z"/></g><g class="cls-20"><path class="cls-21" d="M322.32,302.21H304.74a1.5,1.5,0,0,1,0-3h17.58a1.5,1.5,0,0,1,0,3Z"/></g><g class="cls-20"><path class="cls-21" d="M388.32,326.21h-18a1.5,1.5,0,0,1,0-3h18a1.5,1.5,0,0,1,0,3Z"/></g><g class="cls-20"><path class="cls-21" d="M418.32,326.21h-18a1.5,1.5,0,0,1,0-3h18a1.5,1.5,0,0,1,0,3Z"/></g><g class="cls-20"><path class="cls-21" d="M352.32,326.21h-18a1.5,1.5,0,0,1,0-3h18a1.5,1.5,0,0,1,0,3Z"/></g><g class="cls-20"><path class="cls-21" d="M353.77,278.21h-7.46a1.5,1.5,0,0,1,0-3h7.46a1.5,1.5,0,0,1,0,3Z"/></g><g class="cls-20"><path class="cls-21" d="M370.32,278.21h-6a1.5,1.5,0,0,1,0-3h6a1.5,1.5,0,0,1,0,3Z"/></g><g class="cls-20"><path class="cls-21" d="M334.32,338.21h-18a1.5,1.5,0,0,1,0-3h18a1.5,1.5,0,0,1,0,3Z"/></g><path class="cls-8" d="M425.54,263.25a3,3,0,0,1-2.91-3.75L424,254a3,3,0,0,1,5.81,1.49l-2.48,9.25C427,266.07,426.88,263.25,425.54,263.25Z"/><path class="cls-18" d="M468.95,310.16c1.53-.91,5-2.76,7-3.79,0,0,1.07-2.7,2-4.66a4.77,4.77,0,0,1,7.61-1.17l3.28,4.71a6.32,6.32,0,0,1,1.46,3.53v6.33a5,5,0,0,1-3.42,4.74l-10.47,3.49a5,5,0,0,1-6.05-2.51L468,316C467,314,467.07,311.28,468.95,310.16Z"/><path class="cls-8" d="M474.88,326.59a8,8,0,0,1-7.18-4.42l-2.42-4.85c-1.61-3.21-1.24-7.74,2.15-9.75,1.36-.81,4.16-2.3,6.14-3.35.42-1,1.08-2.56,1.72-3.85a7.7,7.7,0,0,1,5.52-4.1,7.89,7.89,0,0,1,6.82,2.07l.24.22,3.46,5a9.05,9.05,0,0,1,2,5.25v6.33a8,8,0,0,1-5.47,7.59l-10.47,3.49A7.9,7.9,0,0,1,474.88,326.59Zm-4.4-13.85a2.29,2.29,0,0,0,.16,1.9l2.42,4.85a2,2,0,0,0,2.42,1L486,317a2,2,0,0,0,1.37-1.9v-6.33a4.44,4.44,0,0,0-.93-1.82l-3.06-4.39a1.8,1.8,0,0,0-1.45-.39,1.72,1.72,0,0,0-1.22.87c-.9,1.82-1.93,4.41-1.94,4.44l-.41,1-1,.52C475.59,309.95,472,311.87,470.48,312.75Z"/><path class="cls-18" d="M382.32,217.65v12.59a5.81,5.81,0,0,0,1.7,4.11l6.19,6.19a5.81,5.81,0,0,0,8.22,0l6.19-6.19a5.81,5.81,0,0,0,1.7-4.11V217.65Z"/><path class="cls-22" d="M414.12,195.17s1.31-.09,1.31-5.84c0-8.95-6.69-17.86-21-17.86s-20.81,9.17-20.81,18c0,4.91.86,5.66.86,5.66-2.81-.23-4.23,3-3.4,6.94.68,3.21,2.15,4.95,5.2,6.57.07.52,0,3,0,3.6,0,4.06,5.31,10.22,11.27,13.19a11.85,11.85,0,0,0,5.27,1.22h3a11.27,11.27,0,0,0,4.75-1c6.16-2.86,11.77-9.25,11.77-13.42,0-.55-.07-3.08,0-3.6,3-1.62,4.45-3.36,5.13-6.57C418.28,198.18,416.87,194.59,414.12,195.17Z"/><path class="cls-18" d="M382.32,217.65v12.59a5.81,5.81,0,0,0,1.7,4.11l6.19,6.19a5.81,5.81,0,0,0,8.22,0l6.19-6.19a5.81,5.81,0,0,0,1.7-4.11V217.65Z"/><path class="cls-22" d="M414.12,195.17s1.31-.09,1.31-5.84c0-8.95-6.69-17.86-21-17.86s-20.81,9.17-20.81,18c0,4.91.86,5.66.86,5.66-2.81-.23-4.23,3-3.4,6.94.68,3.21,2.15,4.95,5.2,6.57.07.52,0,3,0,3.6,0,4.06,5.31,10.22,11.27,13.19a11.85,11.85,0,0,0,5.27,1.22h3a11.27,11.27,0,0,0,4.75-1c6.16-2.86,11.77-9.25,11.77-13.42,0-.55-.07-3.08,0-3.6,3-1.62,4.45-3.36,5.13-6.57C418.28,198.18,416.87,194.59,414.12,195.17Z"/><path class="cls-18" d="M414.12,195.17s1.31-.09,1.31-5.84c0-8.95-6.69-17.86-21-17.86-1,0-2,0-2.89.14l-1.17,4.87c-2.93,7-5.87,17.58-5.87,31.67a98.4,98.4,0,0,0,1.24,16.3c.6.37,1.2.71,1.81,1a11.85,11.85,0,0,0,5.27,1.22h3a11.27,11.27,0,0,0,4.75-1c6.16-2.86,11.77-9.25,11.77-13.42,0-.55-.07-3.08,0-3.6,3-1.62,4.45-3.36,5.13-6.57C418.28,198.18,416.87,194.59,414.12,195.17Z"/><circle class="cls-8" cx="403" cy="202.85" r="2.25"/><circle class="cls-8" cx="385.89" cy="202.85" r="2.25"/><polyline class="cls-15" points="355.32 465.71 355.32 476.21 391.32 476.21 391.32 465.71"/><polygon class="cls-8" points="394.32 479.21 352.32 479.21 352.32 465.71 358.32 465.71 358.32 473.21 388.32 473.21 388.32 465.71 394.32 465.71 394.32 479.21"/><rect class="cls-8" x="355.32" y="470.21" width="36" height="6"/><polygon class="cls-23" points="383.64 223 398.81 238.18 406.19 231.44 406.88 220.5 398.63 227.21 389.82 226.31 383.64 223"/><polygon class="cls-8" points="467.26 312.71 468.43 313.86 470.54 312.71 467.26 312.71"/><polygon class="cls-3" points="381.9 236.47 424.9 279.47 424.9 263.25 430.46 268.81 451.32 248.03 429.44 226.7 410.4 223.7 403 223.82 392.84 226.7 381.9 222.71 381.9 236.47"/><path class="cls-3" d="M472,276.19l-45.79-44.43a20.74,20.74,0,0,0-13-4.55H402.57l68.52,65.36a11,11,0,0,0,7,2.48l-3.48-10.84v-2.77A6.73,6.73,0,0,0,472,276.19Z"/><path class="cls-7" d="M478.79,274.69,433,230.26a20.74,20.74,0,0,0-13-4.55H409.32l57,54.52a11,11,0,0,0,7,2.48h8.08v-2.77A6.73,6.73,0,0,0,478.79,274.69Z"/><path class="cls-8" d="M484.32,281.45v-1.5a9.68,9.68,0,0,0-3.53-7.5c-.32-.31-45.58-44.24-45.91-44.53a23.83,23.83,0,0,0-14.83-5.2h-18.2l36.63,35.05a37.38,37.38,0,0,0-8.26,9.1L428,270.35l13.5,17,7.51,7.4h8.53l-11.46-11.27L435.35,270a31.39,31.39,0,0,1,7.53-8c23.67,22.66,21.23,20.42,22.37,21.21l7.65,7.47,2.83,4.05H483l-5.54-7.95-1.08-1.05h3.7l9.23,9h4.3l2.09-2.15Zm-15.18-2.88-52.35-49.86H420a17.81,17.81,0,0,1,11,3.8l43.69,42.39Z"/><path class="cls-8" d="M434.56,183.14a7.18,7.18,0,0,0-2.47-5.42,7.19,7.19,0,0,0-3.28-11.29,7.17,7.17,0,0,0-7.76-9.35s0,0,0-.06a7.19,7.19,0,0,0-8.78-7l-.5-.28a7.2,7.2,0,0,0-11-4.06l-.1,0a7.2,7.2,0,0,0-12.79-.05l-.4.07a7.2,7.2,0,0,0-11,4.06l-.5.28a7.19,7.19,0,0,0-8.78,7s0,0,0,.06a7.2,7.2,0,0,0-7.76,9.35,7.19,7.19,0,0,0-3.28,11.29,7.19,7.19,0,0,0,1.21,11.71,7.19,7.19,0,0,0,4.07,10.5,7.16,7.16,0,0,0,5.75,8.3,7.2,7.2,0,0,0,6,3.71c0,.14,0,.26,0,.34,0,3.45,2.35,7.28,5.55,10.47-5.78.21-11.43.62-17,1.25a15,15,0,0,0-8.43,3.91l-35.28,32.66a10,10,0,0,0-2.75,10.22c4.79,15.68,7,22.84,22.54,41.53l1.14,1.38a60.23,60.23,0,0,0,10.57,10.62l.29.23c2.36,1.84,4.17,3,9.6,3l1.6,0c3.3-.12,7.49-1.44,12.46-3.93a10.29,10.29,0,0,0,5.71-9.27v-3.47a7.16,7.16,0,0,0-7.16-7.16H360.28l-12.73-29.14L362.32,264a3.12,3.12,0,0,0,.92-4.15A3,3,0,0,0,359,259l-5.08,3.65a18.65,18.65,0,0,1-9.74-5.3c-2.36-2.61-2.81-7.45-2.79-10.06l16.17-15a9,9,0,0,1,5-2.35c5.45-.62,11-1,16.75-1.22v1.49a8.75,8.75,0,0,0,2.58,6.23l6.19,6.19a8.81,8.81,0,0,0,12.46,0l6.19-6.19a8.75,8.75,0,0,0,2.58-6.23v-7c3.45-3.31,6-7.34,6-10.91,0-.08,0-.21,0-.36a7.2,7.2,0,0,0,5.74-3.69,7.16,7.16,0,0,0,5.75-8.3,7.19,7.19,0,0,0,4.07-10.5A7.2,7.2,0,0,0,434.56,183.14ZM339.7,261.37a22.72,22.72,0,0,0,8.12,5.63l-2.76,2a4.22,4.22,0,0,1-5,0l-1.53-1.12a1.5,1.5,0,0,0-1.78,2.42l2.3,1.69a5.14,5.14,0,0,1,1.67,2.08l15.59,35.7h15.8a1.16,1.16,0,0,1,1.16,1.16v3.47a4.32,4.32,0,0,1-2.39,3.9c-4.08,2-7.63,3.21-10,3.3-4.84.18-5.61-.42-7.29-1.73l-.3-.24a54.52,54.52,0,0,1-9.61-9.69l-1.16-1.41c-14.78-17.76-16.72-24.11-21.41-39.45a4,4,0,0,1,1.09-4.06l13.52-12.52A17.66,17.66,0,0,0,339.7,261.37Zm63.62-31.13a2.79,2.79,0,0,1-.82,2l-6.19,6.19a2.88,2.88,0,0,1-4,0l-6.19-6.19a2.79,2.79,0,0,1-.82-2v-2.57c.3.17.61.33.91.49a14.92,14.92,0,0,0,6.61,1.54h3a14.17,14.17,0,0,0,6-1.27c.5-.23,1-.5,1.5-.77Zm11.19-28.75c-.49,2.3-1.3,3.32-3.6,4.55a3,3,0,0,0-1.56,2.22,26.17,26.17,0,0,0,0,3.33c0,.31,0,.56,0,.69,0,2.38-4.31,8-10,10.7a8.23,8.23,0,0,1-3.49.71h-3a8.89,8.89,0,0,1-3.94-.91c-5.57-2.77-9.61-8.19-9.61-10.5,0-.13,0-.38,0-.69a26.21,26.21,0,0,0,0-3.33A3,3,0,0,0,377.7,206c-2.34-1.25-3.2-2.31-3.68-4.55a5.56,5.56,0,0,1,.05-3c.11-.07.23-.12.34-.2.37.57.76,1.19,1.16,1.89a1.89,1.89,0,0,0,1.6,1,1.8,1.8,0,0,0,1.81-1.8v-7l.38-.77a6.34,6.34,0,0,0,2.06-3.07,6.33,6.33,0,0,0,5.09-2.27,6.08,6.08,0,0,0,2.61.47,6.29,6.29,0,0,0,10.34,0,6.13,6.13,0,0,0,2.61-.47,6.35,6.35,0,0,0,5.09,2.27,6.35,6.35,0,0,0,2.06,3.07l.38.77v7a1.8,1.8,0,0,0,3.37.89c.42-.73.82-1.39,1.21-2l.3.17A6.2,6.2,0,0,1,414.51,201.49Z"/></g></g></svg>